<svg xmlns="http://www.w3.org/2000/svg" fill="none" viewBox="0 0 37 38">
  <path fill="currentcolor" d="M21.843.535a16.515 16.515 0 0 0-2.14 0c-4.02.312-7.79 2.07-10.612 4.948l-.619.619a5.151 5.151 0 0 0-.168 7.117l-3.377 3.376a2.335 2.335 0 0 1-1.636.67h-.978a2.312 2.312 0 1 0 0 4.626h.978a6.953 6.953 0 0 0 4.91-2.035l3.365-3.365 3.088 3.087-8.507 8.504a2.33 2.33 0 0 1-1.469.515h-.977a2.312 2.312 0 1 0 0 4.625h.977a6.943 6.943 0 0 0 4.91-2.035l3.366-3.365 4.973-4.972 3.089 3.087-3.372 3.371a6.93 6.93 0 0 0-2.03 4.903v.977a2.312 2.312 0 1 0 4.626 0v-.977c0-.613.244-1.203.677-1.637l3.372-3.376a5.155 5.155 0 0 0 4.349 1.266 5.364 5.364 0 0 0 2.845-1.52l.526-.526a16.678 16.678 0 0 0 4.956-10.615C37.561 8.86 30.79 1.13 21.843.535ZM27.4 9.727a1.734 1.734 0 0 1-1.208.491c-.44 0-.909-.179-1.25-.526-.433-.445-2.03-1.908-4.412-1.908-1.74 0-3.03.775-3.65 1.238a1.734 1.734 0 1 1-2.08-2.775c.96-.723 2.984-1.926 5.725-1.931 3.643 0 6.043 2.07 6.905 2.96a1.734 1.734 0 0 1-.04 2.45h.011Z"/>
</svg>
